PathFileType	4	(X/Y/Z)	C:/Users/beibeiliu/ov580/test_trc/User3\sequence.48_training_dense_left.trc
DataRate	CameraRate	NumFrames	NumMarkers	Units	OrigDataRate	OrigDataStartFrame	OrigNumFrames
120	120	16	19	mm	120	1	188
Frame#	Time	ThumbCMC			ThumbMCP			ThumbIP			ThumbTip			IndexMCP			IndexPIP			IndexTip			MiddleMCP			MiddlePIP			MiddleTip			RingMCP			RingPIP			RingTip			PinkyMCP			PinkyPIP			PinkyTip			BackHand1			BackHand2			BackHand3	
		X0	Y0	Z0	X1	Y1	Z1	X2	Y2	Z2	X3	Y3	Z3	X4	Y4	Z4	X5	Y5	Z5	X6	Y6	Z6	X7	Y7	Z7	X8	Y8	Z8	X9	Y9	Z9	X10	Y10	Z10	X11	Y11	Z11	X12	Y12	Z12	X13	Y13	Z13	X14	Y14	Z14	X15	Y15	Z15	X16	Y16	Z16	X17	Y17	Z17	X18	Y18	Z18	
0	0	-92.034	1.91594	100.461	-73.6135	-4.75832	79.3281	-52.0736	-7.18949	57.8183	-39.3871	-13.1564	35.642	-115.961	20.4866	26.8305	-107.384	22.753	0.700032	-101.373	20.1284	-30.0921	-142.987	20.0384	21.6859	-146.351	19.9712	-8.36994	-148.173	7.84973	-39.765	-161.313	8.43873	26.9889	-167.948	5.95967	4.5505	-173.238	-6.65577	-20.9843	-181.979	-7.65327	44.2859	-189.414	-14.1028	26.5407	-192.773	-25.1799	2.82926	-157.413	16.5688	77.9973	-156.746	14.407	112.978	-125.602	22.0001	91.6393	
1	0.00833333	-93.119	0.563862	98.2087	-72.2908	-4.4069	78.2033	-56.7346	-9.1685	56.148	-39.8777	-14.8675	36.0151	-116.017	19.685	25.0706	-108.632	21.7619	-3.96052	-103.343	17.2501	-31.3773	-142.083	19.4646	18.9817	-144.46	19.1646	-6.11488	-147.696	6.57831	-39.7995	-164.884	6.91938	29.766	-166.48	4.66454	4.21358	-172.844	-8.84757	-25.7041	-177.888	-8.03406	47.6059	-190.185	-15.9565	21.8779	-195.309	-25.4622	4.12546	-158.571	13.9477	81.7053	-155.717	15.3543	110.174	-124.285	20.6708	89.6351	
2	0.0166667	-91.8306	0.465741	100.308	-72.9216	-4.78972	80.8812	-50.9919	-8.57477	54.4204	-40.8367	-14.9241	40.2407	-109.421	20.5357	21.9321	-107.749	21.0914	-1.73005	-98.8165	18.4072	-26.9965	-142.301	19.0351	22.5633	-142.922	18.5442	-7.14885	-142.512	8.15063	-38.5527	-157.884	7.97247	31.0024	-165.575	3.36603	0.222018	-171.668	-8.71192	-24.2154	-178.241	-7.07457	46.7749	-188.128	-15.555	24.2836	-191.183	-26.3343	4.5583	-157.911	15.0421	81.2791	-153.492	14.4626	109.721	-124.134	20.4642	92.6067	
3	0.025	-87.4936	2.9688	95.0085	-71.919	-3.71225	76.9121	-51.6623	-7.60754	55.3793	-38.5233	-13.6506	41.1103	-111.322	20.9238	21.5798	-102.732	23.0511	-5.55023	-103.739	18.7313	-27.1184	-138.605	19.8568	22.8621	-142.215	19.122	-9.89997	-143.863	8.22893	-39.5847	-156.787	9.04408	27.5251	-164.856	4.45056	0.977269	-167.914	-4.34785	-21.0377	-172.075	-6.14927	46.1676	-183.063	-11.6499	22.7242	-191.536	-22.3787	3.12247	-155.118	15.2703	77.3883	-156.235	14.98	108.217	-121.879	22.3446	88.8208	
4	0.0333333	-91.4068	0.709065	96.7131	-70.1474	-3.73234	73.181	-49.6536	-7.91037	54.3484	-37.232	-14.2742	35.6084	-109.041	22.0405	23.7714	-105.298	24.3857	-2.0896	-100.202	21.8332	-28.1601	-137.617	22.9623	16.0373	-140.199	19.8523	-13.4694	-142.411	12.0091	-39.7957	-161.071	8.11877	27.8207	-164.169	6.75993	-1.794	-170.531	-4.36715	-25.9549	-177.967	-6.51142	43.8144	-181.997	-9.8819	22.6807	-192.411	-20.1827	1.54514	-155.751	16.889	77.2576	-150.309	16.4756	105.358	-122.011	20.9719	87.5013	
5	0.0416667	-93.4232	-2.51047	88.2309	-74.9079	-7.97315	68.1697	-58.2835	-13.1185	42.3505	-46.6817	-21.1462	24.1811	-112.434	21.753	22.3269	-113.343	25.1162	-8.86586	-107.424	23.3784	-31.2356	-145.806	23.1913	16.1539	-146.67	24.6308	-11.678	-153.34	16.8034	-41.503	-166.134	11.4905	27.0486	-172.894	10.3408	-1.89933	-178.675	0.882769	-24.0896	-180.616	-1.95283	42.8292	-188.024	-5.93369	23.156	-197.441	-19.8669	1.58084	-154.017	16.8016	79.0872	-153.378	13.9385	106.143	-120.165	19.2245	86.1115	
6	0.05	-101.253	-8.8336	80.0198	-85.4927	-16.9638	56.6693	-76.4626	-25.5447	34.1025	-70.6732	-32.6392	11.4201	-129.805	21.8438	13.1073	-124.31	25.3899	-9.44263	-126.063	25.3639	-36.3422	-160.229	25.4092	14.7097	-161.759	29.6083	-10.6607	-170.869	24.3277	-45.3847	-173.942	13.4004	26.6053	-186.349	13.0448	-1.54752	-191.517	-3.19326	-29.8262	-195.497	-2.69639	41.0681	-204.624	-10.6417	15.8542	-207.354	-28.5289	-0.903557	-162.221	12.6423	75.8336	-162.189	10.529	104.901	-132.017	16.1732	83.0684	
7	0.0583333	-115.48	-16.378	76.8345	-103.638	-28.7206	50.9292	-93.0824	-38.1291	21.2064	-90.5294	-49.2688	1.72378	-147.036	14.7751	9.93118	-143.709	20.2188	-18.9395	-147.365	20.3728	-41.4777	-177.128	18.3266	12.7781	-184.155	23.3075	-13.5103	-191.076	11.5512	-50.7379	-191.638	3.22	21.526	-206.594	-5.51068	-5.41836	-205.112	-32.0108	-21.2388	-211.392	-15.6608	34.1506	-215.261	-29.7724	14.73	-205.31	-58.9059	5.7911	-182.957	4.25422	72.6836	-176.412	3.53997	98.5406	-144.686	10.8184	75.3972	
8	0.0666667	-126.125	-18.7601	72.5349	-114.34	-34.6708	48.3866	-105.85	-47.5254	25.2732	-104.295	-62.74	2.54674	-159.101	1.8294	9.23727	-158.156	7.10707	-23.3201	-154.27	2.01853	-50.393	-188.05	-0.331973	11.4263	-200.205	-3.76242	-22.0152	-198.251	-28.6003	-46.9417	-202.439	-21.6747	15.1828	-206.804	-43.5838	-6.01235	-187.186	-71.6879	0.0814533	-213.833	-41.27	34.9751	-207.789	-63.2183	18.606	-186.759	-84.4949	30.392	-192.767	-7.68275	66.0842	-188.542	-4.96109	97.4953	-159.276	2.95525	72.1133	
9	0.075	-130.957	-12.6214	75.8463	-107.665	-27.2662	53.123	-94.3468	-40.8393	33.3179	-96.253	-61.7484	17.2095	-159.154	-7.87488	6.3096	-159.735	-6.35062	-21.4889	-151.487	-15.88	-49.2064	-184.391	-21.8127	2.45985	-183.833	-36.1068	-27.2015	-167.028	-68.7264	-33.162	-186.149	-50.5146	11.227	-178.846	-79.3773	4.74889	-155.488	-87.6971	29.4925	-193.603	-64.6038	35.1197	-174.613	-88.9846	34.1277	-156.104	-86.8262	55.6171	-197.779	-22.6208	62.2191	-195.618	-14.1796	88.463	-166.08	0.118393	68.7223	
10	0.0833333	-130.636	-1.28106	72.1803	-104.344	-9.80548	55.8842	-84.4201	-22.757	36.9245	-77.9765	-46.716	22.9707	-152.734	-16.6459	2.18203	-145.485	-14.8058	-26.2166	-127.116	-30.2331	-48.0595	-163.937	-42.5735	-3.97055	-147.891	-59.1538	-23.9694	-120.685	-81.5212	-9.21807	-158.397	-70.9551	17.7836	-133.618	-88.2904	19.6721	-118.569	-78.1811	51.0429	-161.045	-78.4562	37.8253	-134.186	-89.0777	47.1644	-127.765	-74.8651	71.4104	-188.003	-38.6101	56.7082	-190.966	-28.4073	81.3979	-170.066	-6.50312	62.2761	
11	0.0916667	-138.099	5.49685	70.6536	-107.348	13.7389	53.156	-83.2758	6.58765	35.548	-71.7636	-17.6889	27.5618	-143.821	-17.9855	-3.32855	-130.312	-18.1791	-32.1666	-104.323	-25.1477	-40.2654	-138.009	-47.1222	-3.72319	-108.365	-58.4972	-17.6302	-81.7568	-57.1037	13.3811	-126.795	-66.8485	19.5554	-95.9545	-68.9669	24.7818	-92.7199	-57.4153	56.5501	-122.377	-74.3759	36.6609	-101.488	-71.4768	49.2047	-104.24	-55.5202	77.772	-171.61	-51.4736	49.7561	-182.129	-43.4859	77.9513	-166.22	-12.2954	54.6202	
12	0.1	-147.984	3.68394	59.6497	-124.031	18.0706	45.0022	-98.583	25.2981	26.8981	-76.4024	8.63503	18.4339	-139.539	-23.5693	-10.2004	-121.919	-17.9318	-35.2178	-93.212	-12.0216	-32.1515	-119.491	-44.7369	-7.51265	-86.3201	-40.9029	-13.2034	-72.31	-27.9702	17.9227	-104.195	-59.685	16.8007	-76.0446	-43.4152	23.1097	-80.9648	-30.1201	52.4769	-100.9	-67.5769	37.2041	-79.5782	-52.4179	44.6043	-87.354	-31.7922	69.8723	-151.433	-57.786	46.2723	-166.942	-54.5515	77.0474	-166.124	-26.1066	52.7006	
13	0.108333	-159.857	-3.32146	58.1533	-144.52	18.8966	34.4619	-123.845	29.3484	14.0408	-96.5317	22.8439	7.04417	-133.672	-31.9144	-10.5971	-116.454	-18.4267	-35.2855	-94.1943	4.4289	-17.9866	-110.456	-43.95	-11.4946	-84.8399	-24.1894	-17.8767	-78.5874	-3.56798	11.6951	-94.7959	-49.3483	8.74061	-73.071	-30.7442	9.35693	-77.5953	-10.4875	35.8968	-86.7454	-54.5448	27.2123	-69.178	-32.51	32.9401	-79.438	-13.48	50.9172	-135.343	-64.0232	45.8821	-150.607	-66.0375	73.4131	-164.782	-41.8846	51.2496	
14	0.116667	-169.171	-18.1714	53.8328	-165.391	4.8239	32.3993	-152.886	22.293	8.70731	-127.515	26.0055	-2.72862	-129.157	-32.5154	-16.5625	-115.114	-8.79482	-31.2219	-110.323	15.0686	-7.86725	-112.683	-43.7091	-13.5016	-94.2559	-19.5139	-28.738	-87.9301	10.0633	0.289156	-95.3929	-49.4424	1.73156	-76.5364	-27.2841	-9.29251	-78.7608	-1.61215	7.72209	-78.8876	-52.6662	22.6856	-64.6208	-33.689	13.7591	-71.155	-2.05779	25.8889	-121.702	-69.1758	48.0713	-134.328	-69.2372	72.1457	-155.458	-55.4501	48.3402	
15	0.125	-172.028	-30.3153	54.0392	-175.666	-8.74462	30.5187	-172.332	10.3842	3.96103	-156.069	23.1644	-7.13747	-136.359	-32.0608	-17.6454	-128.839	-2.22267	-29.4847	-122.746	21.0343	-3.08723	-115.803	-50.0521	-16.7512	-105.39	-23.6059	-41.3978	-96.9694	9.36005	-30.8066	-99.0868	-55.0523	-2.26445	-86.4491	-38.9895	-24.9875	-78.4424	-7.47688	-23.4295	-80.1338	-52.8374	17.6785	-68.5496	-38.1409	0.0720335	-66.3176	-8.43669	-4.66155	-117.534	-68.7167	41.1067	-126.216	-74.0048	69.8482	-153.335	-64.6408	44.0609	
